<?xml version="1.0" encoding="UTF-8"?>
<svg id="Layer_2" data-name="Layer 2" xmlns="http://www.w3.org/2000/svg" viewBox="0 0 96.66 36.73">
  <defs>
    <style>
      .cls-1, .cls-2, .cls-3, .cls-4, .cls-5 {
        stroke-miterlimit: 10;
        stroke-width: .25px;
      }

      .cls-1, .cls-3 {
        stroke: #231f20;
      }

      .cls-1, .cls-6 {
        fill: #eeeae0;
      }

      .cls-2 {
        fill: #ffdf9e;
      }

      .cls-2, .cls-4 {
        stroke: #181b1f;
      }

      .cls-3 {
        fill: #f47a56;
      }

      .cls-7, .cls-8, .cls-9, .cls-10, .cls-6 {
        stroke-width: 0px;
      }

      .cls-8 {
        fill: #214745;
      }

      .cls-9 {
        fill: #231f20;
      }

      .cls-10 {
        fill: #fff;
      }

      .cls-4, .cls-5 {
        fill: none;
      }

      .cls-5 {
        stroke: #214745;
      }
    </style>
  </defs>
  <g id="Layer_1-2" data-name="Layer 1">
    <rect id="Outer" class="cls-8" width="96.66" height="36.73" rx="2" ry="2"/>
    <rect id="Inner" class="cls-6" x="2.18" y="1.64" width="92.3" height="33.26" rx="8" ry="8"/>
    <g>
      <path class="cls-5" d="m12.35,21.4c-.13,0-.24-.11-.24-.24v-7.91c0-.13.11-.24.24-.24h7.91c.13,0,.24.11.24.24s-.11.24-.24.24h-7.67v3.47h3.71c.13,0,.24.11.24.24s-.11.24-.24.24h-3.71v3.71c0,.13-.11.24-.24.24h0Z"/>
      <path class="cls-5" d="m29.25,21.4h-7.91c-.13,0-.24-.11-.24-.24v-7.91c0-.13.11-.24.24-.24h7.91c.13,0,.24.11.24.24s-.11.24-.24.24h-7.67v3.47h7.67c.13,0,.24.11.24.24s-.11.24-.24.24h-7.67v3.47h7.67c.13,0,.24.11.24.24s-.11.24-.24.24h0Z"/>
      <path class="cls-5" d="m38.52,21.4h-7.91c-.13,0-.24-.11-.24-.24v-7.91c0-.13.11-.24.24-.24h7.91c.13,0,.24.11.24.24s-.11.24-.24.24h-7.67v3.47h7.67c.13,0,.24.11.24.24s-.11.24-.24.24h-7.67v3.47h7.67c.13,0,.24.11.24.24s-.11.24-.24.24h0Z"/>
      <path class="cls-5" d="m47.17,21.4h-7.91c-.13,0-.24-.11-.24-.24s.11-.24.24-.24h7.67v-7.43h-7.67c-.13,0-.24-.11-.24-.24s.11-.24.24-.24h7.91c.13,0,.24.11.24.24v7.91c0,.13-.11.24-.24.24Z"/>
      <path class="cls-5" d="m56.86,21.4h-7.91c-.13,0-.24-.11-.24-.24v-7.91c0-.13.11-.24.24-.24h7.44c.13,0,.24.11.24.24v3.72c.15,0,.22,0,.23,0,.13,0,.24.11.24.24v3.96c0,.13-.11.24-.24.24h0Zm-7.67-7.91v3.5c1.05,0,5.27-.02,6.96-.02v-3.47h-6.96Zm0,7.43h7.43v-3.48c-.06,0-.12,0-.19,0-.02,0-.05,0-.07,0-.19,0-.43,0-.73,0l-6.44.02v3.45h0Z"/>
      <path class="cls-5" d="m66.39,21.4c-.13,0-.24-.11-.24-.24v-3.69h-7.43v3.69c0,.13-.11.24-.24.24s-.24-.11-.24-.24v-7.91c0-.13.11-.24.24-.24h7.91c.13,0,.24.11.24.24v7.91c0,.13-.11.24-.24.24Zm-7.67-4.42h7.43v-3.5h-7.43v3.5Z"/>
      <path class="cls-5" d="m76.07,21.4h-7.91c-.13,0-.24-.11-.24-.24v-7.91c0-.13.11-.24.24-.24h7.91c.13,0,.24.11.24.24s-.11.24-.24.24h-7.67v7.43h7.67c.13,0,.24.11.24.24s-.11.24-.24.24Z"/>
      <path class="cls-5" d="m85.18,21.41c-.08,0-.16-.04-.21-.11l-3.83-5.75-3.62,1.81v3.8c0,.14-.11.25-.25.25s-.25-.11-.25-.25v-7.91c0-.14.11-.25.25-.25s.25.11.25.25v3.55l3.59-1.79s0,0,.01,0l3.95-1.98c.12-.06.27-.01.33.11.06.12.01.27-.11.33l-3.7,1.85,3.8,5.7c.08.11.05.27-.07.35-.04.03-.09.04-.14.04h0Z"/>
    </g>
    <path class="cls-10" d="m74.99,10.39c0,.76-.62,1.38-1.38,1.38-.31,0-.6-.11-.84-.28-.35.4-.86.65-1.43.65-.37,0-.71-.11-1-.29-.35.43-.88.7-1.47.7s-1.08-.25-1.43-.65c-.43.36-.99.57-1.6.57-1.39,0-2.51-1.12-2.51-2.51s1.12-2.51,2.51-2.51c.18,0,.35.02.52.05.21-1.25,1.3-2.2,2.62-2.2s2.31.88,2.59,2.05c.05,0,.1,0,.14,0,.97,0,1.77.73,1.88,1.66h.01c.76,0,1.38.62,1.38,1.38Z"/>
    <g id="Stars">
      <path id="Star2" class="cls-1" d="m2.18,33.5h0c.02.82.7,1.47,1.54,1.49h0,0c-.84.02-1.52.68-1.54,1.49h0s0,0,0,0c-.02-.82-.7-1.47-1.54-1.49h0,0c.84-.02,1.52-.68,1.54-1.49h0Z"/>
      <path id="Star1" class="cls-1" d="m94.48.24h0c.02.82.7,1.47,1.54,1.49h0,0c-.84.02-1.52.68-1.54,1.49h0s0,0,0,0c-.02-.82-.7-1.47-1.54-1.49h0,0c.84-.02,1.52-.68,1.54-1.49h0Z"/>
    </g>
    <g id="Zees">
      <path class="cls-4" d="m65.74,5.7s0,0,0,0c0,0,0,0,0,0,0,0,0,0,0,0,0,0,0,0,0,0,0,0,0,0,0-.01h0s0,0,0-.01c0,0,0,0,0,0,0,0,0,0,0,0l.89-.89h-.87s-.03-.01-.03-.03.01-.03.03-.03h.94s0,0,0,0c0,0,0,0,0,0s0,0,0,0c0,0,0,0,0,0h0s0,0,0,.01c0,0,0,0,0,0l-.89.89h.87s.03.01.03.03-.01.03-.03.03h-.94Z"/>
      <path class="cls-4" d="m61.79,5.7h0s-.01,0-.02,0-.01,0-.02-.01h0s0-.01-.01-.02c0,0,0-.01,0-.02h0s0-.02,0-.02c0,0,0-.01.01-.02h0s1.77-1.77,1.77-1.77h-1.72s-.06-.03-.06-.06.03-.06.06-.06h1.86s.01,0,.02,0c0,0,.01,0,.02.01s0,.01.01.02c0,0,0,.01,0,.02h0s0,.02,0,.02c0,0,0,.01-.01.02l-1.77,1.77h1.72s.06.03.06.06-.03.06-.06.06h-1.86Z"/>
      <path class="cls-4" d="m56.85,5.7h0s-.02,0-.03,0c0,0-.02,0-.03-.02,0,0,0,0,0,0,0,0-.01-.02-.02-.03,0,0,0-.02,0-.03h0s0-.03,0-.04c0,0,0-.02.02-.03h0s2.65-2.65,2.65-2.65h-2.59s-.09-.04-.09-.09.04-.09.09-.09h2.8s.02,0,.03,0c.01,0,.02.01.03.02s.01.02.02.03c0,0,0,.02,0,.03h0s0,.03,0,.04c0,.01-.01.02-.02.03l-2.65,2.65h2.59s.09.04.09.09-.04.09-.09.09h-2.8Z"/>
      <path class="cls-4" d="m50.93,5.7h0s-.03,0-.04,0c-.01,0-.02-.01-.03-.02,0,0,0,0,0,0,0-.01-.02-.02-.02-.03,0-.01,0-.03,0-.04h0s0-.03,0-.05c0-.01.01-.02.02-.03,0,0,0,0,0,0l3.53-3.53h-3.45c-.06,0-.11-.05-.11-.11s.05-.11.11-.11h3.73s.03,0,.04,0c.01,0,.03.01.04.03.01.01.02.02.02.04,0,.01,0,.02,0,.04h0s0,.04,0,.05c0,.01-.01.03-.02.04l-3.53,3.53h3.45c.06,0,.11.05.11.11s-.05.11-.11.11h-3.72Z"/>
      <path class="cls-4" d="m44.01,5.7h0s-.03,0-.05-.01c-.02,0-.03-.02-.04-.03h0s-.02-.03-.03-.05c0-.02-.01-.03-.01-.05h0s0-.04.01-.06c0-.02.02-.03.03-.04,0,0,0,0,0,0l4.42-4.42h-4.32c-.08,0-.14-.06-.14-.14s.06-.14.14-.14h4.67s.03,0,.05.01c.02,0,.03.02.05.03.01.01.02.03.03.05,0,.01,0,.03.01.05h0s0,.04-.01.06c0,.02-.02.03-.03.05l-4.42,4.42h4.32c.08,0,.14.06.14.14s-.06.14-.14.14h-4.66Z"/>
    </g>
    <g id="blob">
      <rect id="RightLeg" class="cls-3" x="70.96" y="9.12" width="1.61" height="3.36" rx=".81" ry=".81" transform="translate(143.43 -.62) rotate(162.39)"/>
      <rect id="LeftLeg" class="cls-3" x="72.8" y="6.95" width="1.61" height="3.36" rx=".81" ry=".81" transform="translate(136.81 -30.07) rotate(141.84)"/>
      <circle id="Head" class="cls-3" cx="67.51" cy="5.07" r="1.9"/>
      <rect id="LeftArm" class="cls-3" x="71.28" y="3.14" width="1.61" height="4.68" rx=".81" ry=".81" transform="translate(95.45 -62.92) rotate(104.51)"/>
      <circle id="Body" class="cls-3" cx="70.08" cy="7.6" r="3.31"/>
      <g id="Hat">
        <path class="cls-2" d="m65.99,2.5c-.3-.25-.72-.25-.93.01-.13.16-.15.39-.07.59-.22-.04-.43.02-.57.18-.21.26-.14.67.16.92.02.02.04.03.06.04h0s.57.48.57.48l1.41-1.7-.57-.48h0s-.03-.03-.05-.05Z"/>
        <path class="cls-7" d="m65.75,5.56c-.05-.18-.08-.37-.07-.56l-.04-.04,1.49-1.8.06.05h.01c.15-.04.3-.05.45-.04.14-.35.16-.61.03-.72-.28-.23-1.14.35-1.93,1.3-.79.95-1.19,1.9-.91,2.14.16.13.51,0,.92-.32Z"/>
      </g>
      <rect id="RightArm" class="cls-3" x="68.23" y="5.54" width="1.61" height="4.68" rx=".81" ry=".81" transform="translate(133.9 32.82) rotate(-165.49)"/>
    </g>
    <rect class="cls-9" x="64.46" y="4.39" width="4.93" height=".68" rx=".15" ry=".15" transform="translate(18.3 50.95) rotate(-47.59)"/>
  </g>
</svg>